<svg xmlns="http://www.w3.org/2000/svg" version="1.1" xmlns:xlink="http://www.w3.org/1999/xlink" xmlns:svgjs="http://svgjs.com/svgjs" width="512" height="512" x="0" y="0" viewBox="0 0 125 125" style="enable-background:new 0 0 512 512" xml:space="preserve" class=""><g><path xmlns="http://www.w3.org/2000/svg" d="M62.225,118.674l0-4a52.523,52.523,0,0,0,11.6-1.307l.891,3.9A56.478,56.478,0,0,1,62.225,118.674Zm-12.492-1.381a55.87,55.87,0,0,1-11.877-4.139l1.733-3.6a51.856,51.856,0,0,0,11.026,3.842Zm36.848-4.188-1.741-3.6a52.3,52.3,0,0,0,9.875-6.225l2.5,3.125A56.348,56.348,0,0,1,86.581,113.105Zm-59.375-6.634A56.647,56.647,0,0,1,18.3,97.6l3.122-2.5a52.611,52.611,0,0,0,8.271,8.246Zm78.891-8.96-3.127-2.495a52.256,52.256,0,0,0,6.218-9.885l3.6,1.737A56.335,56.335,0,0,1,106.1,97.511ZM11.592,86.97A55.878,55.878,0,0,1,7.417,75.109l3.9-.894a51.883,51.883,0,0,0,3.875,11.011ZM116.942,75l-3.9-.886a52.5,52.5,0,0,0,1.3-11.6v-.213l4-.027v.227A56.539,56.539,0,0,1,116.942,75ZM10,62.617H6V62.53a56.516,56.516,0,0,1,1.369-12.4l3.9.878A52.519,52.519,0,0,0,10,62.5Zm103-11.93a51.806,51.806,0,0,0-3.9-11l3.6-1.752a55.835,55.835,0,0,1,4.2,11.852ZM15.1,39.975l-3.607-1.73a56.335,56.335,0,0,1,6.673-10.657L21.3,30.077A52.277,52.277,0,0,0,15.1,39.975Zm87.741-10.146a52.533,52.533,0,0,0-8.288-8.23l2.485-3.135a56.569,56.569,0,0,1,8.92,8.858ZM29.534,21.8l-2.5-3.119a56.274,56.274,0,0,1,10.618-6.724l1.748,3.6A52.251,52.251,0,0,0,29.534,21.8Zm55.113-6.386a51.9,51.9,0,0,0-11.035-3.819l.874-3.9A55.838,55.838,0,0,1,86.372,11.8ZM50.4,11.665l-.9-3.9A56.519,56.519,0,0,1,61.991,6.334l.012,4A52.509,52.509,0,0,0,50.4,11.665Z" fill="#000000" data-original="#000000" class=""></path></g></svg>