<svg xmlns="http://www.w3.org/2000/svg" version="1.1" xmlns:xlink="http://www.w3.org/1999/xlink" xmlns:svgjs="http://svgjs.com/svgjs" width="512" height="512" x="0" y="0" viewBox="0 0 25.626 25.626" style="enable-background:new 0 0 512 512" xml:space="preserve" class=""><g>
<g xmlns="http://www.w3.org/2000/svg">
	<path style="" d="M24.036,13.022L20.38,5.71c0.152-0.265,0.246-0.569,0.246-0.897C20.626,3.812,19.814,3,18.813,3   c-0.42,0-0.802,0.149-1.11,0.389L11.555,1.34C11.346,0.57,10.649,0,9.812,0C8.828,0,8.031,0.786,8.004,1.764L2.562,5.166   C2.333,5.062,2.081,5,1.813,5C0.812,5,0,5.812,0,6.813c0,0.631,0.324,1.186,0.813,1.511v13.978C0.324,22.627,0,23.182,0,23.813   c0,1.001,0.812,1.813,1.813,1.813c0.631,0,1.186-0.324,1.511-0.813h11.978c0.325,0.489,0.879,0.813,1.511,0.813   c1.001,0,1.813-0.812,1.813-1.813c0-0.201-0.041-0.391-0.101-0.572l5.155-6.628c0.045,0.003,0.087,0.013,0.133,0.013   c1.001,0,1.813-0.812,1.813-1.813C25.626,13.888,24.931,13.133,24.036,13.022z M16.946,22.013C16.901,22.01,16.859,22,16.813,22   c-0.631,0-1.186,0.324-1.511,0.813H3.324c-0.135-0.203-0.308-0.376-0.511-0.511V8.324c0.476-0.316,0.791-0.851,0.808-1.462   L9.064,3.46c0.229,0.104,0.481,0.166,0.749,0.166c0.42,0,0.802-0.149,1.11-0.389l6.148,2.049c0.19,0.7,0.784,1.226,1.52,1.317   l3.656,7.313c-0.152,0.265-0.246,0.569-0.246,0.897c0,0.201,0.04,0.391,0.101,0.572L16.946,22.013z" fill="#030104" data-original="#030104" class=""></path>
</g>
<g xmlns="http://www.w3.org/2000/svg">
</g>
<g xmlns="http://www.w3.org/2000/svg">
</g>
<g xmlns="http://www.w3.org/2000/svg">
</g>
<g xmlns="http://www.w3.org/2000/svg">
</g>
<g xmlns="http://www.w3.org/2000/svg">
</g>
<g xmlns="http://www.w3.org/2000/svg">
</g>
<g xmlns="http://www.w3.org/2000/svg">
</g>
<g xmlns="http://www.w3.org/2000/svg">
</g>
<g xmlns="http://www.w3.org/2000/svg">
</g>
<g xmlns="http://www.w3.org/2000/svg">
</g>
<g xmlns="http://www.w3.org/2000/svg">
</g>
<g xmlns="http://www.w3.org/2000/svg">
</g>
<g xmlns="http://www.w3.org/2000/svg">
</g>
<g xmlns="http://www.w3.org/2000/svg">
</g>
<g xmlns="http://www.w3.org/2000/svg">
</g>
</g></svg>