<svg xmlns="http://www.w3.org/2000/svg" version="1.1" xmlns:xlink="http://www.w3.org/1999/xlink" xmlns:svgjs="http://svgjs.com/svgjs" width="512" height="512" x="0" y="0" viewBox="0 0 512 512" style="enable-background:new 0 0 512 512" xml:space="preserve" class=""><g>
<g xmlns="http://www.w3.org/2000/svg">
	<g>
		<path d="M496.762,335.238h-78.54l68.018-39.27c3.5-2.021,6.054-5.35,7.1-9.253c1.046-3.903,0.499-8.063-1.523-11.563    l-73.143-126.686c-4.208-7.288-13.526-9.787-20.815-5.577l-68.017,39.27l39.27-68.018c2.021-3.5,2.568-7.66,1.523-11.563    c-1.046-3.904-3.599-7.232-7.1-9.253L236.847,20.183c-7.289-4.211-16.608-1.711-20.815,5.577l-39.27,68.016V15.238    C176.762,6.823,169.939,0,161.524,0H15.238C6.823,0,0,6.823,0,15.238v406.349c0,24.882,10.34,47.391,26.943,63.47    C43.02,501.66,65.53,512,90.413,512h406.349c8.415,0,15.238-6.823,15.238-15.238V350.476    C512,342.061,505.177,335.238,496.762,335.238z M399.9,176.901l57.905,100.294L357.27,335.238H125.652L399.9,176.901z     M234.805,54.195L335.1,112.1l-58.044,100.535L76.467,328.444L234.805,54.195z M30.476,30.476h115.81v116.087L30.476,347.151    V30.476z M481.524,481.524H90.413c-31.929,0-57.905-25.976-57.905-57.905s25.976-57.905,57.905-57.905h391.111V481.524z" fill="#000000" data-original="#000000" class=""></path>
	</g>
</g>
<g xmlns="http://www.w3.org/2000/svg">
	<g>
		<path d="M88.381,408.381c-7.971,0-15.607,7.008-15.238,15.238c0.37,8.256,6.696,15.238,15.238,15.238    c7.971,0,15.607-7.008,15.238-15.238C103.249,415.363,96.923,408.381,88.381,408.381z" fill="#000000" data-original="#000000" class=""></path>
	</g>
</g>
<g xmlns="http://www.w3.org/2000/svg">
</g>
<g xmlns="http://www.w3.org/2000/svg">
</g>
<g xmlns="http://www.w3.org/2000/svg">
</g>
<g xmlns="http://www.w3.org/2000/svg">
</g>
<g xmlns="http://www.w3.org/2000/svg">
</g>
<g xmlns="http://www.w3.org/2000/svg">
</g>
<g xmlns="http://www.w3.org/2000/svg">
</g>
<g xmlns="http://www.w3.org/2000/svg">
</g>
<g xmlns="http://www.w3.org/2000/svg">
</g>
<g xmlns="http://www.w3.org/2000/svg">
</g>
<g xmlns="http://www.w3.org/2000/svg">
</g>
<g xmlns="http://www.w3.org/2000/svg">
</g>
<g xmlns="http://www.w3.org/2000/svg">
</g>
<g xmlns="http://www.w3.org/2000/svg">
</g>
<g xmlns="http://www.w3.org/2000/svg">
</g>
</g></svg>