<svg xmlns="http://www.w3.org/2000/svg" version="1.1" xmlns:xlink="http://www.w3.org/1999/xlink" xmlns:svgjs="http://svgjs.com/svgjs" width="512" height="512" x="0" y="0" viewBox="0 0 512 512" style="enable-background:new 0 0 512 512" xml:space="preserve"><g><g xmlns="http://www.w3.org/2000/svg"><path d="m376 512h-240c-33.084 0-60-26.916-60-60v-392c0-33.084 26.916-60 60-60h240c33.084 0 60 26.916 60 60s-26.916 60-60 60h-180v76h129c33.084 0 60 26.916 60 60s-26.916 60-60 60h-129v76h180c33.084 0 60 26.916 60 60s-26.916 60-60 60zm-240-482c-16.542 0-30 13.458-30 30v392c0 16.542 13.458 30 30 30h240c16.542 0 30-13.458 30-30s-13.458-30-30-30h-195c-8.284 0-15-6.716-15-15v-106c0-8.284 6.716-15 15-15h144c16.542 0 30-13.458 30-30s-13.458-30-30-30h-144c-8.284 0-15-6.716-15-15v-106c0-8.284 6.716-15 15-15h195c16.542 0 30-13.458 30-30s-13.458-30-30-30z" fill="#000000" data-original="#000000"></path></g></g></svg>